<!DOCTYPE svg PUBLIC "-//W3C//DTD SVG 20010904//EN" "http://www.w3.org/TR/2001/REC-SVG-20010904/DTD/svg10.dtd">
<svg version="1.0" xmlns="http://www.w3.org/2000/svg" width="1600px" height="465px" viewBox="0 0 16000 4650" preserveAspectRatio="xMidYMid meet">
<g id="layer101" fill="#fffffe" stroke="none">
 <path d="M855 4630 c-202 -45 -379 -144 -531 -294 -124 -123 -216 -266 -269 -421 -76 -219 -76 -511 0 -730 67 -195 219 -405 375 -517 25 -18 51 -38 58 -45 23 -22 216 -113 273 -129 243 -68 429 -68 669 0 62 17 265 116 296 143 10 10 35 30 54 44 62 46 160 151 215 230 56 78 135 231 135 259 0 9 4 20 8 26 22 25 62 252 62 354 0 65 -26 249 -42 300 -61 192 -143 336 -265 466 -111 119 -319 247 -473 293 -154 45 -413 55 -565 21z"/>
 <path d="M3285 4630 c-261 -59 -502 -222 -661 -446 -42 -59 -113 -200 -137 -274 -57 -171 -73 -322 -53 -475 9 -60 20 -132 26 -160 12 -59 75 -218 102 -257 10 -14 18 -31 18 -36 0 -6 6 -17 13 -24 6 -7 24 -32 39 -55 40 -61 163 -187 238 -242 119 -88 255 -151 415 -191 116 -30 361 -32 465 -6 36 10 82 22 103 27 129 32 326 150 442 265 348 342 433 862 213 1301 -22 45 -48 90 -57 100 -9 10 -24 31 -35 47 -48 75 -167 194 -242 242 -16 11 -38 27 -49 37 -11 10 -30 20 -42 23 -13 4 -23 9 -23 13 0 3 -15 12 -32 20 -18 8 -52 22 -74 32 -128 57 -209 71 -414 75 -141 2 -191 -1 -255 -16z"/>
 <path d="M6135 4454 c-11 -3 -40 -9 -65 -15 -333 -79 -546 -307 -637 -681 -26 -107 -26 -454 1 -553 54 -206 122 -336 243 -466 48 -51 207 -169 228 -169 4 0 21 -7 38 -14 123 -57 280 -77 492 -65 126 8 182 19 305 64 41 15 83 29 93 32 14 5 17 12 11 36 -3 17 -10 38 -15 47 -4 8 -17 42 -28 76 -11 33 -27 79 -36 102 -18 45 -17 45 -100 7 -41 -19 -97 -34 -185 -51 -123 -23 -187 -18 -332 26 -98 29 -239 159 -295 272 -68 136 -78 185 -78 378 0 164 2 180 27 251 87 249 231 377 469 420 110 20 291 -11 424 -71 52 -24 61 -21 74 23 5 18 26 78 45 135 20 57 34 107 31 112 -5 9 -114 50 -180 69 -22 6 -58 16 -80 22 -40 11 -412 22 -450 13z"/>
 <path d="M7645 4454 c-91 -21 -119 -29 -180 -52 -38 -14 -82 -34 -97 -44 -14 -10 -29 -18 -32 -18 -4 0 -33 -19 -64 -42 -142 -105 -253 -261 -310 -435 -75 -227 -71 -580 7 -788 51 -133 122 -246 217 -342 189 -190 423 -266 741 -241 111 8 131 13 255 60 260 100 444 328 519 643 32 133 36 395 8 511 -84 354 -249 568 -529 688 -121 51 -160 59 -340 62 -96 1 -184 1 -195 -2z m320 -319 c112 -38 132 -52 224 -144 197 -200 240 -614 93 -910 -40 -81 -151 -194 -225 -231 -168 -82 -309 -81 -487 3 -81 38 -184 152 -232 257 -45 99 -58 146 -68 262 -16 189 13 369 81 496 62 116 181 223 283 255 28 9 65 21 81 26 43 15 191 7 250 -14z"/>
 <path d="M9500 4450 c-50 -9 -129 -34 -177 -56 -17 -8 -34 -14 -37 -14 -13 0 -114 -71 -148 -104 -36 -35 -118 -147 -118 -161 0 -4 -6 -21 -14 -38 -63 -144 -66 -188 -66 -924 l0 -653 170 0 170 0 0 639 c0 699 2 732 58 834 35 66 116 129 195 153 88 27 299 27 377 0 114 -39 178 -103 221 -222 22 -58 22 -71 26 -731 l4 -673 170 0 170 0 -4 693 c-4 655 -6 696 -24 762 -51 178 -131 302 -239 371 -16 10 -31 21 -34 24 -10 12 -107 54 -180 78 -68 22 -94 25 -275 28 -110 1 -220 -1 -245 -6z"/>
 <path d="M13280 4445 c-123 -28 -272 -94 -337 -151 -21 -18 -41 -34 -45 -34 -19 0 -142 -162 -181 -238 -62 -120 -94 -232 -113 -399 -16 -132 -16 -152 -1 -280 15 -123 46 -252 78 -323 103 -225 257 -385 449 -464 147 -60 193 -68 396 -67 140 0 261 15 334 41 62 21 175 63 178 65 5 4 -91 281 -100 291 -4 3 -19 -1 -35 -9 -82 -43 -265 -87 -360 -87 -107 0 -218 33 -303 91 -131 90 -205 194 -256 365 -23 78 -27 106 -27 229 0 98 5 156 16 195 9 30 21 72 27 94 12 39 30 74 75 146 29 46 118 140 132 140 5 0 18 8 29 18 40 36 119 66 221 82 71 12 95 11 180 -2 114 -19 179 -36 246 -67 49 -22 67 -21 67 5 0 8 4 22 10 32 5 9 23 58 39 107 16 50 32 98 36 107 7 18 -16 31 -125 68 -135 46 -171 52 -370 56 -147 3 -211 0 -260 -11z"/>
 <path d="M10780 3470 l0 -970 183 0 183 0 85 126 c46 70 101 152 121 183 20 31 41 61 46 67 5 5 22 30 38 55 16 24 31 46 34 49 3 3 68 100 145 215 77 116 143 212 146 215 3 3 19 25 34 50 15 25 31 47 34 50 3 3 42 59 85 125 44 66 87 129 95 141 15 18 16 -40 13 -628 l-3 -648 170 0 171 0 0 970 0 970 -150 0 -150 0 -17 -27 c-10 -16 -20 -30 -23 -33 -3 -3 -46 -66 -95 -140 -50 -74 -93 -137 -96 -140 -3 -3 -22 -30 -41 -60 -35 -54 -165 -245 -194 -285 -30 -42 -335 -491 -396 -584 -20 -31 -40 -60 -45 -66 -5 -5 -15 -20 -23 -31 -13 -19 -15 61 -12 672 l3 694 -171 0 -170 0 0 -970z"/>
 <path d="M14287 4434 c-4 -4 -7 -441 -7 -971 l0 -963 173 2 172 3 0 965 0 965 -166 3 c-91 1 -168 -1 -172 -4z"/>
 <path d="M14910 3470 l0 -970 170 0 170 0 0 810 0 810 375 0 375 0 0 160 0 160 -545 0 -545 0 0 -970z"/>
 <path d="M935 2204 c-97 -14 -246 -64 -348 -116 -282 -145 -501 -429 -568 -738 -20 -94 -23 -365 -4 -456 22 -111 30 -137 69 -226 9 -20 16 -38 16 -41 0 -14 97 -168 134 -212 128 -155 256 -250 451 -336 210 -92 525 -102 760 -24 49 16 215 93 225 105 3 3 25 18 48 33 189 123 351 340 426 572 29 91 56 255 56 345 0 203 -75 444 -196 626 -42 64 -180 208 -239 250 -22 16 -42 31 -45 34 -12 12 -90 58 -140 82 -56 27 -145 59 -235 84 -49 15 -346 27 -410 18z"/>
 <path d="M3370 2204 c-91 -11 -248 -62 -345 -112 -38 -20 -72 -39 -75 -42 -3 -3 -30 -21 -61 -41 -121 -80 -276 -262 -352 -414 -54 -109 -91 -246 -106 -395 -26 -240 52 -531 197 -735 51 -72 207 -225 277 -272 244 -163 525 -225 807 -178 98 17 101 17 218 61 145 55 285 149 395 266 73 78 80 86 130 168 106 169 147 289 166 483 12 119 2 301 -20 373 -5 16 -15 49 -22 74 -7 25 -16 50 -19 55 -4 6 -14 31 -24 57 -49 134 -216 349 -330 427 -12 8 -23 18 -26 21 -10 14 -118 77 -190 112 -41 20 -120 49 -175 63 -85 23 -123 28 -255 30 -85 2 -171 1 -190 -1z"/>
 <path d="M12355 2160 c-88 -17 -155 -36 -225 -66 -68 -29 -160 -79 -160 -86 0 -22 134 -268 146 -268 8 0 39 14 69 31 104 59 220 90 420 113 88 11 285 -41 328 -86 56 -58 71 -90 71 -157 1 -55 -4 -73 -26 -107 -51 -79 -122 -121 -338 -199 -41 -14 -84 -30 -95 -34 -11 -5 -58 -23 -105 -41 -210 -82 -319 -176 -376 -326 -23 -59 -27 -85 -27 -179 -1 -62 4 -127 12 -150 40 -128 125 -238 231 -298 109 -63 290 -106 441 -107 144 0 406 49 502 95 l38 18 -7 161 c-4 88 -7 162 -8 163 -1 1 -13 -3 -26 -10 -22 -11 -122 -50 -200 -78 -116 -41 -379 -54 -474 -23 -90 30 -137 72 -156 141 -10 32 -9 50 0 80 36 109 99 154 355 253 11 4 43 16 70 25 28 9 64 23 82 31 17 8 34 14 37 14 3 0 39 15 78 34 248 114 358 265 358 491 0 91 -16 161 -54 240 -81 168 -247 283 -476 330 -103 21 -365 18 -485 -5z"/>
 <path d="M5580 1191 l0 -971 410 0 c243 0 431 4 462 10 133 27 232 72 306 140 42 39 112 138 112 160 0 9 4 20 8 26 18 20 32 94 32 167 0 102 -28 207 -70 262 -29 38 -95 102 -124 120 l-28 19 33 12 c159 55 254 149 299 298 7 21 12 85 12 141 0 98 -8 139 -39 212 -7 17 -13 34 -13 38 0 3 -13 25 -29 48 -74 108 -170 180 -302 227 -140 50 -160 51 -626 57 l-443 5 0 -971z m915 634 c99 -31 158 -91 185 -188 24 -90 -12 -197 -85 -247 -78 -53 -123 -60 -412 -60 l-263 0 0 262 0 261 263 -6 c194 -5 275 -10 312 -22z m-93 -822 c6 -7 19 -13 28 -13 27 0 96 -67 119 -115 30 -63 28 -143 -4 -207 -29 -58 -53 -81 -115 -111 -41 -19 -64 -21 -277 -25 l-233 -4 0 247 0 247 235 -3 c170 -3 237 -7 247 -16z"/>
 <path d="M7250 1190 l0 -970 378 0 c376 0 426 4 571 40 131 32 281 150 333 260 46 98 52 129 52 260 0 153 -22 229 -93 323 -46 60 -165 153 -205 159 -28 4 -29 20 -3 48 23 26 90 128 128 195 64 116 319 625 319 639 0 14 -22 16 -190 16 l-190 0 -21 -47 c-64 -143 -247 -506 -284 -563 -23 -36 -62 -83 -86 -103 l-43 -37 -163 0 -163 0 0 375 0 375 -170 0 -170 0 0 -970z m822 -115 c68 -29 116 -71 145 -129 22 -43 26 -64 26 -131 0 -94 -16 -135 -70 -192 -74 -78 -137 -92 -390 -93 l-193 0 0 286 0 286 218 -4 c187 -3 223 -7 264 -23z"/>
 <path d="M8940 1190 l0 -970 170 0 170 0 0 970 0 970 -170 0 -170 0 0 -970z"/>
 <path d="M10130 1345 l0 -815 -305 0 -305 0 0 -155 0 -155 785 0 785 0 0 155 0 155 -310 0 -310 0 0 815 0 815 -170 0 -170 0 0 -815z"/>
 <path d="M11330 1190 l0 -970 170 0 170 0 0 970 0 970 -170 0 -170 0 0 -970z"/>
 <path d="M13650 1190 l0 -970 175 0 175 0 0 395 0 395 455 0 455 0 0 -395 0 -395 170 0 170 0 0 970 0 970 -170 0 -170 0 0 -415 0 -415 -455 0 -455 0 0 415 0 415 -175 0 -175 0 0 -970z"/>
 </g>

</svg>